<svg width="25" height="24" fill="none" xmlns="http://www.w3.org/2000/svg"><path d="M17.157 20.25H9.892a5.631 5.631 0 01-5.625-5.625V8.86A8.529 8.529 0 00.423 1.72.937.937 0 111.455.155 10.42 10.42 0 014.74 3.632c.172.193 1.561 1.665 3.838 1.665h10.796c2.945-.055 5.25 2.9 4.48 5.744l-1.242 4.953a5.618 5.618 0 01-5.456 4.256zM5.905 6.642c.156.72.237 1.463.237 2.217v5.766a3.754 3.754 0 003.75 3.75h7.265a3.745 3.745 0 003.637-2.837l1.243-4.954c.457-1.689-.913-3.445-2.662-3.412H8.579a6.99 6.99 0 01-2.674-.53zm3.518 16.186c0-.647-.525-1.172-1.172-1.172-1.555.062-1.554 2.283 0 2.344.647 0 1.172-.525 1.172-1.172zm9.328 0c0-.647-.525-1.172-1.172-1.172-1.555.062-1.553 2.283 0 2.344.647 0 1.172-.525 1.172-1.172zm1.561-12.844a.938.938 0 00-.937-.937H8.955c-1.245.05-1.244 1.826 0 1.875h10.42c.517 0 .937-.42.937-.938z" fill="#3D3D3D"/></svg>