<svg width="20" height="20" fill="none" xmlns="http://www.w3.org/2000/svg"><path d="M5.35 14.775c-1.858-1.217-3.058-3.05-3.058-4.659 0-2.733 3.45-6.083 7.708-6.083 1.742 0 3.358.558 4.658 1.425m1.883 1.717c.743.942 1.175 1.984 1.175 2.942 0 2.733-3.458 6.083-7.716 6.083-.759 0-1.5-.108-2.192-.3" stroke="#727272" stroke-width="1.5" stroke-linecap="round" stroke-linejoin="round"/><path d="M8.138 11.973a2.6 2.6 0 01-.77-1.858 2.633 2.633 0 014.494-1.868m.729 2.336a2.631 2.631 0 01-2.114 2.118m6.099-9.159L3.431 16.687" stroke="#727272" stroke-width="1.5" stroke-linecap="round" stroke-linejoin="round"/></svg>