<svg width="35" height="35" fill="none" xmlns="http://www.w3.org/2000/svg"><path d="M17.15 0C7.677 0 0 7.677 0 17.15c0 8.87 6.735 16.168 15.371 17.057-.521-4.294-.327-7.807.336-10.694-.372-1.79-1.217-4.443-3.134-6.327 0 0 1.262 1.892 1.945 4.435 0 .005.004.009.004.013a13.036 13.036 0 01.364 1.908c-9.69-1.189-11.757-9.885-11.53-13.164 10.309.57 12.42 7.451 12.727 11.72 3.376-11.057 14.101-11.696 14.987-11.72.384 8.498-5.92 15.125-13.455 15.703.049-.23.105-.461.162-.688.016-.068.036-.133.056-.202.045-.161.09-.323.142-.485l.064-.21c.057-.178.118-.352.178-.53.017-.04.029-.08.045-.121.077-.21.157-.412.238-.614.008-.017.012-.037.02-.053h.005c1.932-4.674 5.498-7.734 5.498-7.734-6.998 4.043-8.179 14.554-8.365 18.78.493.044.987.076 1.492.076 9.473 0 17.15-7.677 17.15-17.15C34.3 7.677 26.623 0 17.15 0z" fill="#46A358"/></svg>