<svg width="16" height="14" fill="none" xmlns="http://www.w3.org/2000/svg"><path d="M5.032 13.004c6.038 0 9.34-5.003 9.34-9.34 0-.143-.003-.284-.01-.425A6.681 6.681 0 0016 1.54a6.549 6.549 0 01-1.885.517A3.295 3.295 0 0015.559.24a6.58 6.58 0 01-2.085.797A3.283 3.283 0 007.88 4.031 9.32 9.32 0 011.115.6 3.28 3.28 0 002.13 4.983a3.26 3.26 0 01-1.487-.41v.042a3.284 3.284 0 002.633 3.218 3.286 3.286 0 01-1.483.056 3.287 3.287 0 003.067 2.28A6.587 6.587 0 010 11.53a9.293 9.293 0 005.032 1.475z" fill="#46A358"/></svg>